<svg xmlns="http://www.w3.org/2000/svg" width="524" height="76" viewBox="0 0 524 76">
  <metadata><?xpacket begin="﻿" id="W5M0MpCehiHzreSzNTczkc9d"?>
<x:xmpmeta xmlns:x="adobe:ns:meta/" x:xmptk="Adobe XMP Core 5.6-c140 79.160451, 2017/05/06-01:08:21        ">
   <rdf:RDF xmlns:rdf="http://www.w3.org/1999/02/22-rdf-syntax-ns#">
      <rdf:Description rdf:about=""/>
   </rdf:RDF>
</x:xmpmeta>
                                                                                                    
                                                                                                    
                                                                                                    
                                                                                                    
                                                                                                    
                                                                                                    
                                                                                                    
                                                                                                    
                                                                                                    
                                                                                                    
                                                                                                    
                                                                                                    
                                                                                                    
                                                                                                    
                                                                                                    
                                                                                                    
                                                                                                    
                                                                                                    
                                                                                                    
                                                                                                    
                           
<?xpacket end="w"?></metadata>
<defs>
    <style>
      .cls-1 {
        fill: #fff;
        fill-rule: evenodd;
      }
    </style>
  </defs>
  <g id="Artboard_1" data-name="Artboard 1">
    <path class="cls-1" d="M264.349,43.66V28.531H247.11V43.66h-4.651V9.961h4.651V24.583h17.239V9.961H269v33.7h-4.651ZM237,43.66h-4.753l-3.082-8.145H213.444l-3.035,8.145h-4.752l13.4-33.7h4.55ZM214.858,31.768H227.8l-6.471-17.559-6.471,17.559h0ZM199.942,43.66h-4.651V9.961h4.651v33.7Zm-29.774,0h-4.652V9.961h8.746a20.393,20.393,0,0,1,5.08.606,13.338,13.338,0,0,1,4.121,1.8,8.727,8.727,0,0,1,2.782,2.985,8.279,8.279,0,0,1,1.012,4.125,8.949,8.949,0,0,1-2.248,6.072,12.768,12.768,0,0,1-6.292,3.744L190.6,43.66h-5.711L173.917,30.1c-0.17,0-.423.009-0.76,0.024s-0.691.024-1.063,0.024h-1.92V43.66h-0.006ZM182.6,19.576a5,5,0,0,0-2.525-4.527,9,9,0,0,0-2.68-1.011,15,15,0,0,0-3.184-.33h-4.043v12.7H172.5a18.529,18.529,0,0,0,3.97-.405,10.408,10.408,0,0,0,3.21-1.239,6.362,6.362,0,0,0,2.15-2.124A5.889,5.889,0,0,0,182.6,19.576ZM160.058,43.66h-4.753l-3.085-8.145H136.5l-3.035,8.145h-4.752l13.4-33.7h4.55ZM137.915,31.768h12.942l-6.471-17.559-6.471,17.559h0ZM111.374,9.961v29.9h14.055V43.66H106.723V9.961h4.651ZM91.507,9.355a27.986,27.986,0,0,1,4.752.429,19.043,19.043,0,0,1,4.145,1.14l-0.759,3.594a25.885,25.885,0,0,0-3.69-.987,20.624,20.624,0,0,0-3.892-.378q-6.32,0-9.856,3.543T78.669,26.815q0,6.579,3.538,10.119t9.856,3.543a20.386,20.386,0,0,0,3.892-.381,25.778,25.778,0,0,0,3.69-.987L100.4,42.7a19.043,19.043,0,0,1-4.145,1.14,27.96,27.96,0,0,1-4.752.429A19.677,19.677,0,0,1,84.1,42.955a15.469,15.469,0,0,1-5.485-3.642A15.915,15.915,0,0,1,75.2,33.8a19.843,19.843,0,0,1-1.188-6.984A19.826,19.826,0,0,1,75.2,19.831a15.971,15.971,0,0,1,3.413-5.517A15.469,15.469,0,0,1,84.1,10.672a19.618,19.618,0,0,1,7.406-1.317h0ZM39.044,1h0.143q1.447,1.786,2.891,3.573c-1.968,1.38-2.409,1.71-3.46,2.535a21.637,21.637,0,0,0-7.674,11.181c-1.7,6.117,1.736,12.192,4.961,14.787,2.629,2.118,5.113,4.284,8.743,5.43,9.475,2.988,15.848-4.227,19.091-9.714a20.678,20.678,0,0,0,2.32-5.106Q68.127,24.7,70.2,25.723a6.5,6.5,0,0,1-.643,1.893,35.483,35.483,0,0,1-2.891,5.466c-3.99,6.336-12.62,14.124-23.837,10.752a24.462,24.462,0,0,1-5.959-2.607c-4.893-3.051-8.918-7.272-10.776-13.359a19.174,19.174,0,0,1-.5-8.787,27.054,27.054,0,0,1,1.569-5.037,30.293,30.293,0,0,1,9.207-11.25q1.34-.9,2.677-1.794h0Z"/>
    <path id="orange" class="cls-1" d="M25.23,40.747a19.909,19.909,0,0,1,7.531,1.428c6.843,2.685,12.325,7.4,15.094,14.145,3.121,7.587.316,16.164-4.746,19.68l-4.6-1c0.119-.132.143-0.15,0.262-0.279a25.744,25.744,0,0,0,2.415-2.757c2.141-3.024,3.946-8.04,2.391-13-1.763-5.631-5.881-9.411-11.205-11.5a14.636,14.636,0,0,0-7.424-1.035,17.358,17.358,0,0,0-3.746.927C15.508,49.765,11.4,55.765,8.245,60.787q-1.6,2.678-3.213,5.358Q3.017,65.362,1,64.573A68.093,68.093,0,0,1,4.32,58.5c3.6-6.1,7.257-12.084,13.346-15.681A17.231,17.231,0,0,1,22.7,41l2.531-.252h0ZM44.738,18.868A9.411,9.411,0,0,1,49.984,21.8a6.426,6.426,0,0,1,.965,1.929,6.837,6.837,0,0,1-2.605,7.428A4.786,4.786,0,0,1,45.6,32.26c-4.044.585-10.276-3.54-8.278-9.072,0.89-2.469,3.9-3.936,4.711-4.143A7.813,7.813,0,0,1,44.738,18.868Z"/>
    <path id="WP3" class="cls-1" d="M332.135,9.832h-7.162l-4.807,21.943L316.152,9.832h-8.387l7.45,34.994h8.725l4.59-19.948,4.687,19.949h8.748l7.427-34.994h-8.364l-4.014,21.943ZM366.5,32.953q6.393,0,10.059-3.064a10.127,10.127,0,0,0,3.665-8.184,11.484,11.484,0,0,0-1.695-6.189,11.14,11.14,0,0,0-4.782-4.206,16.266,16.266,0,0,0-7.1-1.478H352.685V44.826h8.436V32.953H366.5Zm-5.383-16.608h5.624a4.683,4.683,0,0,1,3.605,1.49,5.631,5.631,0,0,1,1.322,3.918,4.555,4.555,0,0,1-1.286,3.461,5.214,5.214,0,0,1-3.737,1.226h-5.528V16.345Zm30.5,13.628h3.942a5.527,5.527,0,0,1,3.653,1.106,4.65,4.65,0,0,1,1.322,3.749,3.977,3.977,0,0,1-1.274,3.04,4.8,4.8,0,0,1-3.413,1.19,4.579,4.579,0,0,1-3.2-1.178,3.644,3.644,0,0,1-1.3-2.788h-8.148a9.438,9.438,0,0,0,1.514,5.276A10,10,0,0,0,389.181,44a15.516,15.516,0,0,0,6.381,1.31,14.963,14.963,0,0,0,9.469-2.812,9.028,9.028,0,0,0,3.605-7.5,8.067,8.067,0,0,0-1.586-5.083,9.408,9.408,0,0,0-4.374-3.064,9.855,9.855,0,0,0,4.026-3.257,7.393,7.393,0,0,0,1.382-4.266,8.87,8.87,0,0,0-3.341-7.33q-3.34-2.668-9.181-2.668a14.593,14.593,0,0,0-6,1.214,10.152,10.152,0,0,0-4.266,3.377,8.294,8.294,0,0,0-1.538,4.927h8.1a2.861,2.861,0,0,1,1.19-2.331,4.389,4.389,0,0,1,2.8-.937A4.1,4.1,0,0,1,398.9,16.67a3.845,3.845,0,0,1,1.081,2.824q0,4.447-4.542,4.446H391.62v6.033Z"/>
    <path id="vre" class="cls-1" d="M439.519,9.832H438.1l13.075,34.994h1.586L465.837,9.832h-1.418L452.666,41.413l-0.7,2.115-0.7-2.115Zm54.558,34.994h1.37V44.489L486.1,29.516a9.409,9.409,0,0,0,5.661-3.329,9.513,9.513,0,0,0,2.223-6.261,9.29,9.29,0,0,0-3.113-7.379,12.294,12.294,0,0,0-8.376-2.716H471.34V44.826h1.3V29.852h12.138Zm-21.439-33.7H482.4a11.215,11.215,0,0,1,7.535,2.355,8.035,8.035,0,0,1,2.752,6.441A8.309,8.309,0,0,1,490.2,26.1a8.894,8.894,0,0,1-6.525,2.451H472.638V11.13Zm49.871,15.046H504.964V11.13h20v-1.3H503.667V44.826h21.294v-1.3h-20V27.473h17.545v-1.3Z"/>
  </g>
</svg>
